<svg xmlns="http://www.w3.org/2000/svg" width="1600" height="400" aria-label="Reference scene texture" role="img" viewBox="0 0 1600 400"><defs><linearGradient id="bg" x1="0" x2="1" y1="0" y2="1"><stop offset="0%" stop-color="#0f172a"/><stop offset="52%" stop-color="#123a57"/><stop offset="100%" stop-color="#1f5f5b"/></linearGradient><pattern id="grid" width="50" height="50" patternUnits="userSpaceOnUse"><rect width="50" height="50" fill="#e2e8f0"/><rect width="25" height="25" fill="#f8fafc"/><rect width="25" height="25" x="25" y="25" fill="#f8fafc"/><path stroke="#94a3b8" stroke-width="1" d="M0 25h50M25 0v50"/></pattern><filter id="soft" width="140%" height="140%" x="-20%" y="-20%"><feGaussianBlur stdDeviation="4"/></filter></defs><rect width="1600" height="400" fill="url(#bg)"/><rect width="1530" height="330" x="35" y="35" fill="url(#grid)" opacity=".9" rx="24"/><g stroke="#0f172a" stroke-width="2" opacity=".38"><path fill="none" d="M90 300c130-170 260 170 390 0s260 170 390 0 260 170 390 0"/><path fill="none" d="M90 95c130 170 260-170 390 0s260-170 390 0 260-170 390 0"/></g><g fill="#0b1220" font-family="'DejaVu Sans Mono', monospace" text-anchor="middle"><text x="800" y="110" font-size="44" font-weight="700" letter-spacing="2">REFRACTION SANDBOX</text><text x="800" y="155" font-size="24">Capsule 4:1 | Fixed Texture | Pointer-driven Lighting</text><text x="800" y="325" font-size="20">Use this scene to inspect discontinuity and edge behavior.</text></g><g opacity=".75"><circle cx="260" cy="205" r="52" fill="#f97316" filter="url(#soft)"/><circle cx="1330" cy="205" r="52" fill="#14b8a6" filter="url(#soft)"/><rect width="132" height="30" x="734" y="190" fill="#2563eb" filter="url(#soft)" rx="12"/></g></svg>